<svg width="22" height="22" viewBox="0 0 22 22" fill="none" xmlns="http://www.w3.org/2000/svg">
<path d="M11.0167 4.74194C7.90295 4.74194 5.35901 7.28589 5.35901 10.3997C5.35901 12.0278 6.07131 13.5949 7.27205 14.6531C8.16752 15.5486 8.08611 17.4617 8.06576 17.482C8.06576 17.5838 8.08611 17.6652 8.16752 17.7466C8.22857 17.8076 8.33033 17.8483 8.41174 17.8483H13.6014C13.7031 17.8483 13.7845 17.8076 13.8456 17.7466C13.9066 17.6855 13.9474 17.5838 13.9474 17.482C13.9474 17.4617 13.8456 15.5486 14.7411 14.6531C14.7614 14.6328 14.7818 14.6124 14.8021 14.5921C15.9825 13.5135 16.6745 11.9871 16.6745 10.3997C16.6745 7.28589 14.1305 4.74194 11.0167 4.74194ZM14.273 14.124C14.2526 14.1444 14.2119 14.1851 14.2119 14.2054C13.4182 15.0602 13.2758 16.4644 13.2554 17.136H8.75771C8.73736 16.4644 8.5949 14.9991 7.74014 14.124C6.66151 13.1878 6.03061 11.8243 6.03061 10.3793C6.03061 7.63186 8.24893 5.41354 10.9964 5.41354C13.7438 5.41354 15.9622 7.63186 15.9622 10.3793C15.9622 11.8243 15.3516 13.1878 14.273 14.124Z" fill="white"/>
<path d="M10.9964 6.18689C10.8133 6.18689 10.6505 6.3497 10.6505 6.53287C10.6505 6.71603 10.8133 6.87884 10.9964 6.87884C13.0519 6.87884 14.7004 8.54767 14.7004 10.5828C14.7004 10.766 14.8632 10.9288 15.0464 10.9288C15.2295 10.9288 15.3924 10.766 15.3924 10.5828C15.4127 8.16099 13.4386 6.18689 10.9964 6.18689Z" fill="white"/>
<path d="M13.2554 18.235H8.73739C8.26931 18.235 7.88263 18.6217 7.88263 19.0898C7.88263 19.5578 8.26931 19.9445 8.73739 19.9445H13.2351C13.7235 19.9242 14.1102 19.5578 14.1102 19.0898C14.1102 18.6217 13.7235 18.235 13.2554 18.235ZM13.2554 19.2322H8.73739C8.65599 19.2322 8.57458 19.1712 8.57458 19.0694C8.57458 18.9676 8.63563 18.9066 8.73739 18.9066H13.2351C13.3165 18.9066 13.3979 18.9676 13.3979 19.0694C13.3979 19.1712 13.3368 19.2322 13.2554 19.2322Z" fill="white"/>
<path d="M12.5838 20.2905H9.40896C8.94088 20.2905 8.5542 20.6772 8.5542 21.1453C8.5542 21.6134 8.94088 22.0001 9.40896 22.0001H12.5838C13.0519 22.0001 13.4386 21.6134 13.4386 21.1453C13.4386 20.6569 13.0519 20.2905 12.5838 20.2905ZM12.5838 21.2878H9.40896C9.32756 21.2878 9.24615 21.2267 9.24615 21.1249C9.24615 21.0232 9.30721 20.9621 9.40896 20.9621H12.5838C12.6652 20.9621 12.7466 21.0232 12.7466 21.1249C12.7466 21.2267 12.6652 21.2878 12.5838 21.2878Z" fill="white"/>
<path d="M10.9964 3.05273C11.1999 3.05273 11.3424 2.88992 11.3424 2.70676V0.345976C11.3424 0.162812 11.1796 0 10.9964 0C10.8133 0 10.6505 0.162812 10.6505 0.345976V2.70676C10.6505 2.88992 10.8133 3.05273 10.9964 3.05273Z" fill="white"/>
<path d="M16.7559 1.75029C16.5931 1.62818 16.3896 1.68923 16.2878 1.83169L14.9853 3.78544C14.8632 3.94825 14.9039 4.17212 15.0667 4.27388C15.1278 4.31458 15.1888 4.33493 15.2499 4.33493C15.372 4.33493 15.4737 4.27388 15.5348 4.17212L16.8373 2.21837C16.9594 2.07591 16.9187 1.85204 16.7559 1.75029Z" fill="white"/>
<path d="M6.86504 4.25346C6.92609 4.25346 6.98715 4.2331 7.0482 4.1924C7.21101 4.09064 7.25172 3.86678 7.14996 3.70397L5.88816 1.72987C5.78641 1.56705 5.56254 1.52635 5.39973 1.62811C5.23692 1.72987 5.19621 1.95373 5.29797 2.11655L6.55977 4.09064C6.64117 4.21275 6.74293 4.25346 6.86504 4.25346Z" fill="white"/>
<path d="M4.4025 6.41073L2.347 5.29139C2.18419 5.20999 1.96032 5.27104 1.87892 5.43386C1.77716 5.59667 1.83821 5.82054 2.02138 5.90194L4.07688 7.02128C4.13793 7.04163 4.17863 7.06198 4.23969 7.06198C4.3618 7.06198 4.48391 7.00093 4.54496 6.87882C4.62637 6.71601 4.56531 6.49214 4.4025 6.41073Z" fill="white"/>
<path d="M20.1342 5.43386C20.0528 5.27104 19.829 5.20999 19.6661 5.29139L17.5903 6.41073C17.4275 6.49214 17.3664 6.71601 17.4478 6.87882C17.5089 7.00093 17.631 7.06198 17.7531 7.06198C17.8142 7.06198 17.8752 7.04163 17.9159 7.02128L19.9918 5.90194C20.1546 5.82054 20.2156 5.59667 20.1342 5.43386Z" fill="white"/>
</svg>
